<svg xmlns="http://www.w3.org/2000/svg" viewBox="0 0 800 420" width="800" height="420">
<defs>
  <linearGradient id="bgGrad" x1="0" y1="0" x2="0" y2="1">
    <stop offset="0%" stop-color="#ffffff"/>
    <stop offset="100%" stop-color="#fafbfc"/>
  </linearGradient>
</defs>
<rect width="800" height="420" fill="url(#bgGrad)"/>
<style>
  text { font-family: 'Inter', system-ui, -apple-system, sans-serif; }
</style>

<!-- Title and subtitle -->
<text x="400" y="24" text-anchor="middle" font-size="14" font-weight="600" fill="#333">Hyperparameter Search — Parallel Coordinates</text>
<text x="400" y="39" text-anchor="middle" font-size="10" fill="#999">20 Optuna trials, colored by eval loss</text>

<!-- Legend -->
<rect x="80" y="52" width="10" height="3" rx="1" fill="#76b900" opacity="0.9"/>
<text x="94" y="56" font-size="8.5" fill="#555">Best (&lt;3.8)</text>
<rect x="170" y="52" width="10" height="3" rx="1" fill="#0073e6" opacity="0.7"/>
<text x="184" y="56" font-size="8.5" fill="#555">Good (3.8–4.1)</text>
<rect x="270" y="52" width="10" height="3" rx="1" fill="#94a3b8" opacity="0.4"/>
<text x="284" y="56" font-size="8.5" fill="#555">Poor (4.1–7.0)</text>
<rect x="370" y="52" width="10" height="3" rx="1" fill="#cbd5e1" opacity="0.3"/>
<text x="384" y="56" font-size="8.5" fill="#555">Bad (&gt;7.0)</text>

<!-- Plot area: x=80..740, y=85..380 -->
<!-- 5 axes at x = 80, 245, 410, 575, 740 -->
<!-- Axis height: y=85 (top) to y=380 (bottom) — total 295px -->

<!-- Subtle plot background -->
<rect x="80" y="85" width="660" height="295" fill="#fafafa" stroke="#e8e8e8" stroke-width="0.5" rx="1"/>

<!-- Axis lines -->
<line x1="80" y1="85" x2="80" y2="380" stroke="#ddd" stroke-width="1"/>
<line x1="245" y1="85" x2="245" y2="380" stroke="#ddd" stroke-width="1"/>
<line x1="410" y1="85" x2="410" y2="380" stroke="#ddd" stroke-width="1"/>
<line x1="575" y1="85" x2="575" y2="380" stroke="#ddd" stroke-width="1"/>
<line x1="740" y1="85" x2="740" y2="380" stroke="#ddd" stroke-width="1"/>

<!-- Axis titles -->
<text x="80" y="78" text-anchor="middle" font-size="11" fill="#555" font-weight="500">Learning Rate</text>
<text x="245" y="78" text-anchor="middle" font-size="11" fill="#555" font-weight="500">Batch Size</text>
<text x="410" y="78" text-anchor="middle" font-size="11" fill="#555" font-weight="500">Grad. Accum.</text>
<text x="575" y="78" text-anchor="middle" font-size="11" fill="#555" font-weight="500">LoRA Rank</text>
<text x="740" y="78" text-anchor="middle" font-size="11" fill="#555" font-weight="500">Eval Loss</text>

<!-- Axis 1: Learning Rate (log scale: 1e-5 to 5e-4) -->
<!-- log10(1e-5)=-5, log10(5e-4)=-3.301 => range 1.699 -->
<!-- y = 380 - (log10(lr) - (-5)) / 1.699 * 295 -->
<line x1="76" y1="380" x2="84" y2="380" stroke="#bbb" stroke-width="0.5"/>
<text x="75" y="383" text-anchor="end" font-size="9" fill="#999">1e-5</text>
<line x1="76" y1="328" x2="84" y2="328" stroke="#bbb" stroke-width="0.5"/>
<text x="75" y="331" text-anchor="end" font-size="9" fill="#999">2e-5</text>
<line x1="76" y1="254" x2="84" y2="254" stroke="#bbb" stroke-width="0.5"/>
<text x="75" y="257" text-anchor="end" font-size="9" fill="#999">5e-5</text>
<line x1="76" y1="206" x2="84" y2="206" stroke="#bbb" stroke-width="0.5"/>
<text x="75" y="209" text-anchor="end" font-size="9" fill="#999">1e-4</text>
<line x1="76" y1="154" x2="84" y2="154" stroke="#bbb" stroke-width="0.5"/>
<text x="75" y="157" text-anchor="end" font-size="9" fill="#999">2e-4</text>
<line x1="76" y1="85" x2="84" y2="85" stroke="#bbb" stroke-width="0.5"/>
<text x="75" y="88" text-anchor="end" font-size="9" fill="#999">5e-4</text>

<!-- Axis 2: Batch Size (categorical: 8, 16, 32) -->
<line x1="241" y1="380" x2="249" y2="380" stroke="#bbb" stroke-width="0.5"/>
<text x="240" y="383" text-anchor="end" font-size="9" fill="#999">8</text>
<circle cx="245" cy="380" r="2" fill="#eee" stroke="#ccc" stroke-width="0.5"/>
<line x1="241" y1="232.5" x2="249" y2="232.5" stroke="#bbb" stroke-width="0.5"/>
<text x="240" y="235.5" text-anchor="end" font-size="9" fill="#999">16</text>
<circle cx="245" cy="232.5" r="2" fill="#eee" stroke="#ccc" stroke-width="0.5"/>
<line x1="241" y1="85" x2="249" y2="85" stroke="#bbb" stroke-width="0.5"/>
<text x="240" y="88" text-anchor="end" font-size="9" fill="#999">32</text>
<circle cx="245" cy="85" r="2" fill="#eee" stroke="#ccc" stroke-width="0.5"/>

<!-- Axis 3: Gradient Accumulation (categorical: 1, 2, 4) -->
<line x1="406" y1="380" x2="414" y2="380" stroke="#bbb" stroke-width="0.5"/>
<text x="405" y="383" text-anchor="end" font-size="9" fill="#999">1</text>
<circle cx="410" cy="380" r="2" fill="#eee" stroke="#ccc" stroke-width="0.5"/>
<line x1="406" y1="232.5" x2="414" y2="232.5" stroke="#bbb" stroke-width="0.5"/>
<text x="405" y="235.5" text-anchor="end" font-size="9" fill="#999">2</text>
<circle cx="410" cy="232.5" r="2" fill="#eee" stroke="#ccc" stroke-width="0.5"/>
<line x1="406" y1="85" x2="414" y2="85" stroke="#bbb" stroke-width="0.5"/>
<text x="405" y="88" text-anchor="end" font-size="9" fill="#999">4</text>
<circle cx="410" cy="85" r="2" fill="#eee" stroke="#ccc" stroke-width="0.5"/>

<!-- Axis 4: LoRA Rank (categorical: 32, 64, 128) -->
<line x1="571" y1="380" x2="579" y2="380" stroke="#bbb" stroke-width="0.5"/>
<text x="570" y="383" text-anchor="end" font-size="9" fill="#999">32</text>
<circle cx="575" cy="380" r="2" fill="#eee" stroke="#ccc" stroke-width="0.5"/>
<line x1="571" y1="232.5" x2="579" y2="232.5" stroke="#bbb" stroke-width="0.5"/>
<text x="570" y="235.5" text-anchor="end" font-size="9" fill="#999">64</text>
<circle cx="575" cy="232.5" r="2" fill="#eee" stroke="#ccc" stroke-width="0.5"/>
<line x1="571" y1="85" x2="579" y2="85" stroke="#bbb" stroke-width="0.5"/>
<text x="570" y="88" text-anchor="end" font-size="9" fill="#999">128</text>
<circle cx="575" cy="85" r="2" fill="#eee" stroke="#ccc" stroke-width="0.5"/>

<!-- Axis 5: Eval Loss (linear: 3.5 to 11.0) -->
<!-- y = 380 - (loss - 3.5) / 7.5 * 295 -->
<line x1="741" y1="380" x2="745" y2="380" stroke="#bbb" stroke-width="0.5"/>
<text x="748" y="383" font-size="9" fill="#999">3.5</text>
<line x1="741" y1="340.7" x2="745" y2="340.7" stroke="#bbb" stroke-width="0.5"/>
<text x="748" y="343.7" font-size="9" fill="#999">4.5</text>
<line x1="741" y1="301.3" x2="745" y2="301.3" stroke="#bbb" stroke-width="0.5"/>
<text x="748" y="304.3" font-size="9" fill="#999">5.5</text>
<line x1="741" y1="262" x2="745" y2="262" stroke="#bbb" stroke-width="0.5"/>
<text x="748" y="265" font-size="9" fill="#999">6.5</text>
<line x1="741" y1="222.7" x2="745" y2="222.7" stroke="#bbb" stroke-width="0.5"/>
<text x="748" y="225.7" font-size="9" fill="#999">7.5</text>
<line x1="741" y1="183.3" x2="745" y2="183.3" stroke="#bbb" stroke-width="0.5"/>
<text x="748" y="186.3" font-size="9" fill="#999">8.5</text>
<line x1="741" y1="144" x2="745" y2="144" stroke="#bbb" stroke-width="0.5"/>
<text x="748" y="147" font-size="9" fill="#999">9.5</text>
<line x1="741" y1="104.7" x2="745" y2="104.7" stroke="#bbb" stroke-width="0.5"/>
<text x="748" y="107.7" font-size="9" fill="#999">10.5</text>

<!-- ============================================ -->
<!-- POLYLINES: drawn back-to-front (worst first) -->
<!-- ============================================ -->

<!-- === BAD trials (eval loss > 7.0): light gray, opacity 0.2 === -->

<!-- trial-1_lr1.5e-05_bs16_ga4_r64: Loss=10.2962 -->
<polyline points="80,349.4 245,232.5 410,85 575,232.5 740,112.8"
  fill="none" stroke="#cbd5e1" stroke-width="1.5" opacity="0.2" stroke-linejoin="round"/>

<!-- trial-7_lr1.3e-04_bs32_ga4_r32: Loss=8.1849 -->
<polyline points="80,186.6 245,85 410,85 575,380 740,195.8"
  fill="none" stroke="#cbd5e1" stroke-width="1.5" opacity="0.2" stroke-linejoin="round"/>

<!-- trial-2_lr1.1e-05_bs8_ga4_r128: Loss=7.4254 -->
<polyline points="80,372.8 245,380 410,85 575,85 740,225.6"
  fill="none" stroke="#cbd5e1" stroke-width="1.5" opacity="0.2" stroke-linejoin="round"/>

<!-- === POOR trials (eval loss 4.1–7.0): gray, opacity 0.3 === -->

<!-- trial-0_lr2.5e-05_bs16_ga2_r64: Loss=6.6889 -->
<polyline points="80,310.9 245,232.5 410,232.5 575,232.5 740,254.6"
  fill="none" stroke="#94a3b8" stroke-width="1.5" opacity="0.3" stroke-linejoin="round"/>

<!-- trial-2_lr1.4e-05_bs8_ga4_r128: Loss=6.6583 -->
<polyline points="80,354.6 245,380 410,85 575,85 740,255.8"
  fill="none" stroke="#94a3b8" stroke-width="1.5" opacity="0.3" stroke-linejoin="round"/>

<!-- trial-5_lr3.4e-05_bs16_ga2_r64: Loss=5.7434 -->
<polyline points="80,287.8 245,232.5 410,232.5 575,232.5 740,291.8"
  fill="none" stroke="#94a3b8" stroke-width="1.5" opacity="0.3" stroke-linejoin="round"/>

<!-- trial-3_lr1.6e-05_bs16_ga1_r64: Loss=5.4970 -->
<polyline points="80,344.6 245,232.5 410,380 575,232.5 740,301.5"
  fill="none" stroke="#94a3b8" stroke-width="1.5" opacity="0.3" stroke-linejoin="round"/>

<!-- trial-3_lr2.3e-05_bs32_ga1_r128: Loss=5.2598 -->
<polyline points="80,317.2 245,85 410,380 575,85 740,310.8"
  fill="none" stroke="#94a3b8" stroke-width="1.5" opacity="0.3" stroke-linejoin="round"/>

<!-- trial-9_lr2.0e-04_bs32_ga2_r64: Loss=4.0393 -->
<polyline points="80,154.2 245,85 410,232.5 575,232.5 740,358.8"
  fill="none" stroke="#94a3b8" stroke-width="1.5" opacity="0.3" stroke-linejoin="round"/>

<!-- trial-1_lr1.3e-04_bs8_ga4_r32: Loss=4.0148 -->
<polyline points="80,186.6 245,380 410,85 575,380 740,359.8"
  fill="none" stroke="#94a3b8" stroke-width="1.5" opacity="0.3" stroke-linejoin="round"/>

<!-- === GOOD trials (eval loss 3.8–4.1): blue, opacity 0.6 === -->

<!-- trial-7_lr1.6e-04_bs8_ga2_r32: Loss=3.8884 -->
<polyline points="80,171.0 245,380 410,232.5 575,380 740,364.7"
  fill="none" stroke="#0073e6" stroke-width="1.5" opacity="0.6" stroke-linejoin="round"/>

<!-- trial-8_lr6.8e-05_bs16_ga2_r128: Loss=3.8556 -->
<polyline points="80,235.5 245,232.5 410,232.5 575,85 740,366.0"
  fill="none" stroke="#0073e6" stroke-width="1.5" opacity="0.6" stroke-linejoin="round"/>

<!-- trial-4_lr3.3e-04_bs32_ga2_r64: Loss=3.8539 -->
<polyline points="80,116.4 245,85 410,232.5 575,232.5 740,366.1"
  fill="none" stroke="#0073e6" stroke-width="1.5" opacity="0.6" stroke-linejoin="round"/>

<!-- trial-4_lr1.2e-04_bs32_ga1_r64: Loss=3.8526 -->
<polyline points="80,192.7 245,85 410,380 575,232.5 740,366.1"
  fill="none" stroke="#0073e6" stroke-width="1.5" opacity="0.6" stroke-linejoin="round"/>

<!-- === BEST trials (eval loss < 3.8): NVIDIA green, opacity 0.9 === -->

<!-- trial-6_lr3.6e-04_bs8_ga4_r32: Loss=3.7812 -->
<polyline points="80,109.8 245,380 410,85 575,380 740,368.9"
  fill="none" stroke="#76b900" stroke-width="2" opacity="0.9" stroke-linejoin="round"/>

<!-- trial-0_lr3.2e-05_bs8_ga1_r128: Loss=3.7659 -->
<polyline points="80,292.3 245,380 410,380 575,85 740,369.5"
  fill="none" stroke="#76b900" stroke-width="2" opacity="0.9" stroke-linejoin="round"/>

<!-- trial-5_lr4.4e-04_bs16_ga2_r64: Loss=3.7605 -->
<polyline points="80,94.7 245,232.5 410,232.5 575,232.5 740,369.8"
  fill="none" stroke="#76b900" stroke-width="2" opacity="0.9" stroke-linejoin="round"/>

<!-- trial-6_lr8.1e-05_bs8_ga1_r64: Loss=3.7571 -->
<polyline points="80,222.3 245,380 410,380 575,232.5 740,369.9"
  fill="none" stroke="#76b900" stroke-width="2" opacity="0.9" stroke-linejoin="round"/>

<!-- trial5-lr4.4e-04_bs16_ga2_r64 (WINNER): Loss=3.7499 -->
<polyline points="80,94.7 245,232.5 410,232.5 575,232.5 740,370.2"
  fill="none" stroke="#76b900" stroke-width="3" opacity="1.0" stroke-linejoin="round"/>

<!-- trial0-lr3.2e-05_bs8_ga1_r128 (TOP): Loss=3.7495 -->
<polyline points="80,292.3 245,380 410,380 575,85 740,370.2"
  fill="none" stroke="#76b900" stroke-width="3" opacity="1.0" stroke-linejoin="round"/>

<!-- Endpoint dots for top 2 trials on eval loss axis -->
<circle cx="740" cy="370.2" r="4" fill="#76b900" stroke="#fff" stroke-width="1.2"/>

<!-- BEST label -->
<rect x="693" y="385" width="36" height="14" rx="3" fill="#76b900" opacity="0.15"/>
<text x="711" y="395" text-anchor="middle" font-size="8" font-weight="600" fill="#76b900">BEST</text>
<line x1="711" y1="385" x2="735" y2="373" stroke="#76b900" stroke-width="0.7" opacity="0.5"/>

<!-- Best loss value annotation -->
<text x="740" y="406" text-anchor="middle" font-size="8" fill="#76b900" font-weight="500">3.7495</text>

<!-- Insight annotation -->
<text x="400" y="415" text-anchor="middle" font-size="8.5" fill="#888" font-style="italic">Higher learning rates (1e-4 – 5e-4) with moderate batch sizes correlate with lower eval loss</text>

</svg>