<?xml version="1.0" encoding="UTF-8"?>
<svg xmlns="http://www.w3.org/2000/svg" viewBox="0 0 800 420" style="background:#ffffff" font-family="'Inter', system-ui, -apple-system, sans-serif">
<text x="400" y="24" text-anchor="middle" font-size="14" font-weight="600" fill="#333">train/mean_token_accuracy</text>
<text x="400" y="40" text-anchor="middle" font-size="10" fill="#999">Showing first 10 runs</text>
<line x1="80" y1="54" x2="96" y2="54" stroke="#1b9e77" stroke-width="1.5" stroke-dasharray="6,3"/>
<text x="100" y="57" font-size="8.5" fill="#888">trial5-lr4.4e-04_bs16_ga2_r64</text>
<line x1="80" y1="67" x2="96" y2="67" stroke="#666666" stroke-width="1.5"/>
<text x="100" y="70" font-size="8.5" fill="#888">trial0-lr3.2e-05_bs8_ga1_r128</text>
<line x1="80" y1="80" x2="96" y2="80" stroke="#7570b3" stroke-width="2"/>
<text x="100" y="83" font-size="8.5" fill="#888">cosmos-reason2-safety-sft-final</text>
<line x1="80" y1="93" x2="96" y2="93" stroke="#d95f02" stroke-width="1.5"/>
<text x="100" y="96" font-size="8.5" fill="#888">trial-9_lr2.0e-04_bs32_ga2_r64</text>
<line x1="430" y1="54" x2="446" y2="54" stroke="#66a61e" stroke-width="1.5"/>
<text x="450" y="57" font-size="8.5" fill="#888">trial-8_lr6.8e-05_bs16_ga2_r128</text>
<line x1="430" y1="67" x2="446" y2="67" stroke="#a6761d" stroke-width="1.5"/>
<text x="450" y="70" font-size="8.5" fill="#888">trial-7_lr1.3e-04_bs32_ga4_r32</text>
<line x1="430" y1="80" x2="446" y2="80" stroke="#e7298a" stroke-width="1.5"/>
<text x="450" y="83" font-size="8.5" fill="#888">trial-6_lr3.6e-04_bs8_ga4_r32</text>
<line x1="430" y1="93" x2="446" y2="93" stroke="#e6ab02" stroke-width="1.5"/>
<text x="450" y="96" font-size="8.5" fill="#888">trial-5_lr4.4e-04_bs16_ga2_r64</text>
<defs>
<clipPath id="plotClip"><rect x="60" y="95" width="690" height="265"/></clipPath>
</defs>
<line x1="60" y1="315.8" x2="750" y2="315.8" stroke="#f0f0f0" stroke-width="0.5"/>
<line x1="60" y1="227.5" x2="750" y2="227.5" stroke="#f0f0f0" stroke-width="0.5"/>
<line x1="60" y1="139.2" x2="750" y2="139.2" stroke="#f0f0f0" stroke-width="0.5"/>
<text x="175.0" y="378" text-anchor="middle" font-size="10" fill="#bbb">100</text>
<text x="290.0" y="378" text-anchor="middle" font-size="10" fill="#bbb">200</text>
<text x="405.0" y="378" text-anchor="middle" font-size="10" fill="#bbb">300</text>
<text x="520.0" y="378" text-anchor="middle" font-size="10" fill="#bbb">400</text>
<text x="635.0" y="378" text-anchor="middle" font-size="10" fill="#bbb">500</text>
<text x="750.0" y="378" text-anchor="middle" font-size="10" fill="#bbb">600</text>
<text x="52" y="319.3" text-anchor="end" font-size="10" fill="#bbb">0.3</text>
<text x="52" y="231.0" text-anchor="end" font-size="10" fill="#bbb">0.4</text>
<text x="52" y="142.7" text-anchor="end" font-size="10" fill="#bbb">0.5</text>
<text x="750" y="395" text-anchor="end" font-size="10" fill="#ccc">train/global_step</text>
<g clip-path="url(#plotClip)">
<polyline points="61.15,358.14 62.30,359.12 63.45,360.18 64.60,354.08 65.75,336.86 66.90,324.31 68.05,314.24 69.20,308.06 70.35,302.32 71.50,279.53 72.65,266.81 73.80,251.08 74.95,213.63 76.10,196.58 77.25,158.87 78.40,151.00 79.55,147.03 80.70,140.40 81.85,138.20 83.00,135.28 84.15,136.69 85.30,130.78 86.45,130.51 87.60,130.78 88.75,130.86 89.90,130.69 91.05,129.89 92.20,130.51 93.35,130.60 94.50,129.63 95.65,130.42 96.80,129.36 97.95,129.98 99.10,129.98 100.25,128.83 101.40,129.36 102.55,129.27 103.70,129.01 104.85,128.39 106.00,128.83 107.15,127.33 108.30,129.19 109.45,128.30 110.60,128.30 111.75,128.74 112.90,128.48 114.05,127.24 115.20,128.13 116.35,127.68 117.50,128.21 118.65,127.33 119.80,128.39 120.95,128.04 122.10,128.57 123.25,127.95 124.40,126.62 125.55,126.45 126.70,127.95 127.85,128.30 129.00,127.24 130.15,127.60 131.30,127.86 132.45,127.51 133.60,127.77 134.75,127.15 135.90,127.24 137.05,127.06 138.20,127.68 139.35,127.42 140.50,127.15 141.65,127.60 142.80,126.36 143.95,125.92 145.10,126.54 146.25,127.33 147.40,127.42 148.55,126.89 149.70,126.80 150.85,127.77 152.00,126.89" fill="none" stroke="#1b9e77" stroke-width="1.5" stroke-dasharray="6,3" stroke-linejoin="round" stroke-linecap="round"/>
<polyline points="61.15,356.20 68.05,356.47 74.95,355.94 81.85,336.42 88.75,318.57 95.65,305.68 102.55,271.23 109.45,228.30 116.35,173.35 123.25,136.78 131.30,132.45 138.20,130.86 145.10,132.01 152.00,129.89 158.90,127.86 165.80,129.01 172.70,129.36 179.60,128.04 186.50,129.01 193.40,127.86 200.30,127.33 207.20,128.39 214.10,128.66 221.00,126.18 227.90,126.27 234.80,125.74 241.70,128.04 248.60,128.48 255.50,127.51 262.40,127.68 270.45,127.33 277.35,127.68 284.25,125.30 291.15,123.89 298.05,127.51 304.95,126.09 311.85,128.30 318.75,125.30 325.65,129.19 332.55,127.15 339.45,126.18 346.35,127.86 353.25,125.30 360.15,126.62 367.05,126.01 373.95,126.62 380.85,129.01 387.75,126.01 394.65,126.01 401.55,125.83 409.60,125.48 416.50,125.12 423.40,125.48 430.30,125.12 437.20,125.30 444.10,126.80 451.00,123.62 457.90,123.62 464.80,124.95 471.70,124.77 478.60,122.91 485.50,125.48 492.40,125.83 499.30,124.95 506.20,123.27 513.10,124.59 520.00,123.80 526.90,125.48 533.80,124.59 540.70,124.95 548.75,123.44 555.65,124.50 562.55,124.41 569.45,124.77 576.35,124.33 583.25,123.62 590.15,124.95 597.05,124.50 603.95,124.68 610.85,122.38 617.75,124.33 624.65,123.44 631.55,122.91 638.45,123.09 645.35,122.21 652.25,123.97 659.15,122.21 666.05,122.91 672.95,121.68 679.85,123.97 687.90,122.21 694.80,123.44 701.70,123.80 708.60,122.91 715.50,123.80 722.40,122.91 729.30,122.56 736.20,123.97 743.10,122.91 750.00,122.91" fill="none" stroke="#666666" stroke-width="1.5" stroke-linejoin="round" stroke-linecap="round"/>
<polyline points="61.15,358.14 63.45,358.14 64.60,354.44 66.90,324.58 68.05,313.80 70.35,296.31 72.65,263.89 73.80,249.14 76.10,188.90 77.25,147.74 79.55,150.21 81.85,140.85 83.00,138.28 85.30,134.04 86.45,133.69 88.75,131.22 91.05,130.07 92.20,130.60 94.50,129.54 96.80,129.63 97.95,130.33 100.25,129.36 101.40,129.36 103.70,128.13 106.00,128.30 107.15,127.24 109.45,127.95 110.60,127.95 112.90,128.48 115.20,128.57 116.35,128.30 118.65,127.60 119.80,128.39 122.10,128.39 124.40,126.45 125.55,126.71 127.85,127.68 129.00,127.33 131.30,127.68 133.60,128.21 134.75,127.51 137.05,126.98 138.20,127.60 140.50,127.33 142.80,126.36 143.95,126.09 146.25,127.68 147.40,127.24 149.70,127.51 152.00,126.89 153.15,126.89 155.45,126.01 157.75,127.15 158.90,126.18 161.20,126.45 162.35,126.98 164.65,126.71 166.95,126.18 168.10,127.15 170.40,125.30 171.55,125.12 173.85,125.56 176.15,125.74 177.30,126.09 179.60,126.45 180.75,125.39 183.05,126.27 185.35,125.83 186.50,126.54 188.80,125.74 189.95,125.30 192.25,125.21 194.55,126.27 195.70,125.30 198.00,126.45 199.15,125.48 201.45,125.92 203.75,125.83 204.90,125.21 207.20,126.01 208.35,125.12 210.65,125.56 212.95,124.68 214.10,124.68 216.40,123.53 218.70,125.21 219.85,124.24 222.15,124.41 223.30,124.68 225.60,125.39 227.90,124.33 229.05,123.80 231.35,124.50 232.50,124.50 234.80,125.03 237.10,123.89 238.25,124.41 240.55,124.41 241.70,124.33 244.00,123.62" fill="none" stroke="#7570b3" stroke-width="2" stroke-linejoin="round" stroke-linecap="round"/>
<polyline points="61.15,358.59 62.30,359.65 63.45,351.43 64.60,321.58 65.75,309.92 66.90,305.23 68.05,292.95 69.20,276.44 70.35,265.22 71.50,261.16 72.65,237.31 73.80,219.29 74.95,209.30 76.10,201.18 77.25,188.81 78.40,179.54 79.55,168.32 80.70,147.91 81.85,144.29 83.00,143.76" fill="none" stroke="#d95f02" stroke-width="1.5" stroke-linejoin="round" stroke-linecap="round"/>
<polyline points="61.15,358.14 62.30,359.12 63.45,357.26 64.60,351.25 65.75,332.97 66.90,317.78 68.05,310.45 69.20,308.50 70.35,303.91 71.50,293.75 72.65,276.53 73.80,268.93 74.95,254.88 76.10,252.50 77.25,225.29 78.40,213.19 79.55,209.83 80.70,209.04 81.85,194.02 83.00,179.62 84.15,171.32 85.30,147.38 86.45,144.73 87.60,140.76 88.75,138.81 89.90,137.84 91.05,135.19 92.20,135.37 93.35,135.28 94.50,135.28 95.65,135.02 96.80,133.51 97.95,134.66 99.10,134.31 100.25,133.43 101.40,133.34 102.55,133.16 103.70,132.98 104.85,133.34 106.00,131.57" fill="none" stroke="#66a61e" stroke-width="1.5" stroke-linejoin="round" stroke-linecap="round"/>
<polyline points="61.15,359.12 62.30,359.56 63.45,354.79 64.60,341.27 65.75,334.21 66.90,324.84 68.05,321.66 69.20,318.22 70.35,318.48 71.50,317.51" fill="none" stroke="#a6761d" stroke-width="1.5" stroke-linejoin="round" stroke-linecap="round"/>
<polyline points="61.15,358.14 62.30,359.12 63.45,352.67 64.60,342.07 65.75,325.55 66.90,308.77 68.05,308.06 69.20,296.49 70.35,279.44 71.50,267.60 72.65,255.59 73.80,227.94 74.95,207.01 76.10,185.90 77.25,162.49 78.40,144.64 79.55,141.64 80.70,135.10 81.85,136.52 83.00,135.81 84.15,134.49 85.30,134.66 86.45,134.13 87.60,132.63 88.75,131.04 89.90,129.89 91.05,130.51 92.20,129.98 93.35,129.72 94.50,129.98 95.65,129.54 96.80,128.66 97.95,129.63 99.10,130.86 100.25,129.63 101.40,130.42 102.55,129.89 103.70,129.10 104.85,128.92 106.00,128.30" fill="none" stroke="#e7298a" stroke-width="1.5" stroke-linejoin="round" stroke-linecap="round"/>
<polyline points="61.15,358.14 62.30,359.12 63.45,348.52 64.60,322.02 65.75,303.02 66.90,290.57 68.05,266.99 69.20,246.58 70.35,213.81 71.50,182.10 72.65,147.74 73.80,143.94 74.95,139.52 76.10,134.66 77.25,133.16 78.40,133.69 79.55,130.78 80.70,130.07 81.85,130.69 83.00,131.39 84.15,131.04 85.30,131.48 86.45,129.10 87.60,129.63 88.75,129.80 89.90,128.92 91.05,129.27 92.20,129.72 93.35,129.72 94.50,128.83 95.65,129.36 96.80,126.89 97.95,128.83 99.10,128.57 100.25,128.66 101.40,128.57 102.55,128.13 103.70,127.77 104.85,128.21 106.00,126.71" fill="none" stroke="#e6ab02" stroke-width="1.5" stroke-linejoin="round" stroke-linecap="round"/>
</g>
</svg>