<?xml version="1.0" encoding="UTF-8"?>
<svg xmlns="http://www.w3.org/2000/svg" viewBox="0 0 800 420" width="800" height="420">
  <defs>
    <style>
      @import url('https://fonts.googleapis.com/css2?family=Inter:wght@400;500;600&amp;display=swap');
      text { font-family: 'Inter', system-ui, -apple-system, sans-serif; }
    </style>
    <clipPath id="plotArea">
      <rect x="60" y="95" width="690" height="265"/>
    </clipPath>
  </defs>
  <rect width="800" height="420" fill="#ffffff"/>
  <text x="400.0" y="24" text-anchor="middle" font-size="14" font-weight="600" fill="#333">train/loss</text>
  <text x="400.0" y="40" text-anchor="middle" font-size="10" fill="#999">Showing first 10 runs</text>
  <line x1="170.0" y1="52" x2="185.0" y2="52" stroke="#1b9e77" stroke-width="1.5" stroke-dasharray="6,3"/>
  <text x="190.0" y="55" font-size="8.5" fill="#1b9e77">trial5-lr4.4e-04_bs16_ga2_r64</text>
  <line x1="410.0" y1="52" x2="425.0" y2="52" stroke="#666666" stroke-width="1.5"/>
  <text x="430.0" y="55" font-size="8.5" fill="#666666">trial0-lr3.2e-05_bs8_ga1_r128</text>
  <line x1="170.0" y1="63" x2="185.0" y2="63" stroke="#7570b3" stroke-width="2"/>
  <text x="190.0" y="66" font-size="8.5" fill="#7570b3">cosmos-reason2-safety-sft-final</text>
  <line x1="410.0" y1="63" x2="425.0" y2="63" stroke="#d95f02" stroke-width="1.5"/>
  <text x="430.0" y="66" font-size="8.5" fill="#d95f02">trial-9_lr2.0e-04_bs32_ga2_r64</text>
  <line x1="170.0" y1="74" x2="185.0" y2="74" stroke="#66a61e" stroke-width="1.5"/>
  <text x="190.0" y="77" font-size="8.5" fill="#66a61e">trial-8_lr6.8e-05_bs16_ga2_r128</text>
  <line x1="410.0" y1="74" x2="425.0" y2="74" stroke="#a6761d" stroke-width="1.5"/>
  <text x="430.0" y="77" font-size="8.5" fill="#a6761d">trial-7_lr1.3e-04_bs32_ga4_r32</text>
  <line x1="170.0" y1="85" x2="185.0" y2="85" stroke="#e7298a" stroke-width="1.5"/>
  <text x="190.0" y="88" font-size="8.5" fill="#e7298a">trial-6_lr3.6e-04_bs8_ga4_r32</text>
  <line x1="410.0" y1="85" x2="425.0" y2="85" stroke="#e6ab02" stroke-width="1.5"/>
  <text x="430.0" y="88" font-size="8.5" fill="#e6ab02">trial-5_lr4.4e-04_bs16_ga2_r64</text>
  <line x1="60" y1="315.8" x2="750" y2="315.8" stroke="#f0f0f0" stroke-width="0.5"/>
  <line x1="60" y1="242.2" x2="750" y2="242.2" stroke="#f0f0f0" stroke-width="0.5"/>
  <line x1="60" y1="168.6" x2="750" y2="168.6" stroke="#f0f0f0" stroke-width="0.5"/>
  <text x="50" y="318.8" text-anchor="end" font-size="10" fill="#bbb">5.0</text>
  <text x="50" y="245.2" text-anchor="end" font-size="10" fill="#bbb">7.5</text>
  <text x="50" y="171.6" text-anchor="end" font-size="10" fill="#bbb">10.0</text>
  <text x="175.0" y="376" text-anchor="middle" font-size="10" fill="#bbb">100</text>
  <text x="290.0" y="376" text-anchor="middle" font-size="10" fill="#bbb">200</text>
  <text x="405.0" y="376" text-anchor="middle" font-size="10" fill="#bbb">300</text>
  <text x="520.0" y="376" text-anchor="middle" font-size="10" fill="#bbb">400</text>
  <text x="635.0" y="376" text-anchor="middle" font-size="10" fill="#bbb">500</text>
  <text x="750.0" y="376" text-anchor="middle" font-size="10" fill="#bbb">600</text>
  <text x="750" y="392" text-anchor="end" font-size="10" fill="#ccc" font-style="italic">train/global_step</text>
  <g clip-path="url(#plotArea)">
    <polyline points="61.1,100.5 62.3,101.3 63.5,139.5 64.6,193.6 65.8,250.8 66.9,285.8 68.0,303.7 69.2,316.0 70.3,328.0 71.5,337.0 72.7,343.3 73.8,346.7 75.0,348.3 76.1,349.1 77.2,349.9 78.4,350.2 79.5,350.7 80.7,351.0 81.8,351.2 83.0,351.3 84.2,351.6 85.3,351.7 86.5,352.0 87.6,351.8 88.8,351.9 89.9,352.0 91.0,352.2 92.2,352.0 93.3,352.2 94.5,352.3 95.7,352.3 96.8,352.5 98.0,352.3 99.1,352.3 100.2,352.4 101.4,352.3 102.6,352.4 103.7,352.5 104.8,352.4 106.0,352.4" fill="none" stroke="#e6ab02" stroke-width="1.5" stroke-linecap="round" stroke-linejoin="round"/>
    <polyline points="61.1,100.5 62.3,101.3 63.5,114.9 64.6,149.0 65.8,191.4 66.9,237.7 68.0,263.5 69.2,283.5 70.3,297.9 71.5,309.5 72.7,318.1 73.8,326.2 75.0,332.6 76.1,338.0 77.2,342.1 78.4,345.0 79.5,346.7 80.7,347.9 81.8,348.7 83.0,349.0 84.2,349.6 85.3,349.8 86.5,350.4 87.6,350.4 88.8,350.7 89.9,350.9 91.0,351.1 92.2,351.1 93.3,351.2 94.5,351.5 95.7,351.5 96.8,351.6 98.0,351.5 99.1,351.6 100.2,351.7 101.4,351.6 102.6,351.7 103.7,352.0 104.8,351.9 106.0,351.8" fill="none" stroke="#e7298a" stroke-width="1.5" stroke-linecap="round" stroke-linejoin="round"/>
    <polyline points="61.1,100.6 62.3,101.0 63.5,124.6 64.6,147.1 65.8,164.5 66.9,180.4 68.0,193.2 69.2,205.7 70.3,212.9 71.5,220.2" fill="none" stroke="#a6761d" stroke-width="1.5" stroke-linecap="round" stroke-linejoin="round"/>
    <polyline points="61.1,100.5 62.3,101.3 63.5,111.0 64.6,136.0 65.8,167.5 66.9,202.1 68.0,230.2 69.2,250.5 70.3,262.7 71.5,274.7 72.7,285.6 73.8,294.9 75.0,302.7 76.1,309.6 77.2,315.2 78.4,320.1 79.5,324.4 80.7,328.7 81.8,332.2 83.0,335.4 84.2,338.4 85.3,340.8 86.5,342.9 87.6,344.2 88.8,345.3 89.9,346.3 91.0,346.9 92.2,347.3 93.3,347.8 94.5,348.2 95.7,348.4 96.8,348.7 98.0,348.8 99.1,348.9 100.2,349.1 101.4,349.2 102.6,349.3 103.7,349.6 104.8,349.5 106.0,349.6" fill="none" stroke="#66a61e" stroke-width="1.5" stroke-linecap="round" stroke-linejoin="round"/>
    <polyline points="61.1,100.9 62.3,100.2 63.5,137.2 64.6,191.3 65.8,232.5 66.9,258.9 68.0,276.8 69.2,291.0 70.3,302.3 71.5,311.2 72.7,318.2 73.8,323.7 75.0,328.6 76.1,332.5 77.2,336.0 78.4,338.7 79.5,340.6 80.7,342.1 81.8,343.1 83.0,343.7" fill="none" stroke="#d95f02" stroke-width="1.5" stroke-linecap="round" stroke-linejoin="round"/>
    <polyline points="61.1,100.5 64.6,129.9 66.9,190.7 70.3,272.1 73.8,316.0 76.1,334.9 79.5,346.9 83.0,349.5 86.5,351.2 88.8,351.6 92.2,351.9 95.7,352.2 98.0,352.2 101.4,352.3 104.8,352.5 107.2,352.7 110.6,352.7 114.1,352.7 117.5,352.7 119.8,352.7 123.2,352.7 126.7,352.7 129.0,352.9 132.4,352.8 135.9,352.8 138.2,352.8 141.7,352.8 145.1,353.1 147.4,352.8 150.8,352.8 154.3,352.9 157.8,352.7 160.1,353.0 163.5,352.9 166.9,353.0 169.2,353.0 172.7,352.9 176.2,353.0 178.4,352.9 181.9,353.0 185.4,353.0 187.6,353.1 191.1,353.0 194.6,352.9 198.0,352.9 200.3,353.1 203.8,353.0 207.2,353.2 209.5,353.0 213.0,353.0 216.4,353.4 218.7,353.0 222.1,353.1 225.6,353.0 229.0,353.2 231.3,353.1 234.8,353.0 238.3,353.1 240.5,353.0 244.0,353.2" fill="none" stroke="#7570b3" stroke-width="2" stroke-linecap="round" stroke-linejoin="round"/>
    <polyline points="61.1,101.4 72.7,116.1 84.2,173.8 95.7,247.6 108.3,303.4 119.8,339.9 131.3,349.3 142.8,350.9 154.3,351.6 165.8,351.8 178.4,352.0 189.9,352.6 201.4,352.8 213.0,352.7 224.5,352.7 236.0,352.7 247.4,352.8 260.1,352.9 271.6,352.7 283.1,352.7 294.6,352.5 306.1,353.0 317.6,352.9 330.2,352.7 341.8,352.5 353.2,352.9 364.8,352.9 376.2,352.9 387.8,352.8 399.2,353.0 411.9,353.1 423.4,352.9 434.9,353.0 446.4,353.0 457.9,353.1 469.4,353.0 480.9,352.8 493.5,353.1 505.1,352.9 516.5,353.0 528.0,353.1 539.5,353.1 551.0,353.1 563.7,353.0 575.2,353.1 586.7,353.3 598.2,353.1 609.7,353.3 621.2,353.1 632.7,353.0 645.4,353.6 656.9,353.1 668.4,353.0 679.9,353.0 691.4,353.1 702.9,353.4 715.5,353.1 727.0,353.0 738.5,353.1 750.0,353.3" fill="none" stroke="#666666" stroke-width="1.5" stroke-linecap="round" stroke-linejoin="round"/>
    <polyline points="61.1,100.5 62.3,101.3 64.6,129.3 65.8,158.0 66.9,188.8 69.2,252.3 70.3,271.3 71.5,289.9 73.8,315.1 75.0,325.2 76.1,334.2 78.4,345.7 79.5,347.0 80.7,347.9 83.0,349.9 84.2,350.5 85.3,350.9 87.6,351.3 88.8,351.6 89.9,351.8 92.2,351.9 93.3,352.0 94.5,352.2 96.8,352.4 98.0,352.2 99.1,352.3 101.4,352.3 102.6,352.4 103.7,352.5 106.0,352.5 107.2,352.7 109.5,352.6 110.6,352.7 111.8,352.5 114.1,352.7 115.2,352.6 116.3,352.7 118.7,352.8 119.8,352.7 121.0,352.7 123.2,352.7 124.4,352.9 125.5,353.0 127.8,352.7 129.0,352.9 130.2,352.7 132.4,352.8 133.6,352.7 134.8,352.9 137.1,352.8 138.2,352.7 139.4,352.8 141.7,352.8 142.8,353.0 143.9,352.9 146.2,352.8 147.4,352.8 148.6,352.9 150.8,352.8 152.0,352.9" fill="none" stroke="#1b9e77" stroke-width="1.5" stroke-linecap="round" stroke-linejoin="round" stroke-dasharray="6,3"/>
  </g>
</svg>